<svg width="28" height="28" viewBox="0 0 28 28" fill="none" xmlns="http://www.w3.org/2000/svg">
<path id="Mask" fill-rule="evenodd" clip-rule="evenodd" d="M12 6.66667C12 5.56267 12.896 4.66667 14 4.66667C15.104 4.66667 16 5.56267 16 6.66667C16 7.77067 15.104 8.66667 14 8.66667C12.896 8.66667 12 7.77067 12 6.66667ZM17.6013 10.3336C17.0493 9.3776 17.3773 8.1536 18.3333 7.6016C19.2907 7.0496 20.5133 7.3776 21.0653 8.3336C21.6173 9.29094 21.2893 10.5136 20.3333 11.0656C19.376 11.6176 18.1533 11.2909 17.6013 10.3336ZM9.66666 7.6016C8.71066 7.0496 7.48666 7.3776 6.93466 8.3336C6.38266 9.29094 6.71066 10.5136 7.66666 11.0656C8.62399 11.6176 9.84666 11.2909 10.3987 10.3336C10.9507 9.3776 10.624 8.1536 9.66666 7.6016ZM5.67613 15.7851C5.05746 14.8704 5.29879 13.6264 6.21479 13.0091C7.13079 12.3904 8.37346 12.6331 8.99079 13.5477C9.60946 14.4637 9.36679 15.7064 8.45213 16.3237C7.53613 16.9424 6.29346 16.7011 5.67613 15.7851ZM19.1745 18.0013H16.9745C15.1359 18.0013 13.6412 19.496 13.6412 21.3347C13.6412 22.1427 13.9399 22.9253 14.4825 23.5387C14.6479 23.7253 14.7025 23.9453 14.6439 24.1893C14.5785 24.4627 14.2639 24.64 13.8519 24.6667C10.8079 24.6253 7.91853 23.2773 5.92386 20.9693C3.90386 18.6293 3.01853 15.6307 3.43186 12.5267C4.11319 7.416 8.70919 3.37734 13.8972 3.33334H13.9972C17.1399 3.33334 20.1012 4.53334 22.1399 6.63734C23.8572 8.40934 24.7532 10.6693 24.6599 13C24.5545 15.664 21.9905 18.0013 19.1745 18.0013ZM24.0532 4.78C21.4892 2.13467 17.7532 0.657337 13.8745 0.66667H13.8732C7.28119 0.72267 1.65453 5.66934 0.789192 12.1747C0.279859 15.988 1.41719 19.8293 3.90653 22.712C6.39719 25.5973 10.0092 27.2813 13.8145 27.3333H13.8652C15.4652 27.3333 16.8759 26.284 17.2345 24.8187C17.4999 23.7227 17.2239 22.6107 16.4785 21.768C16.3692 21.6467 16.3079 21.488 16.3079 21.3347C16.3079 20.968 16.6065 20.668 16.9745 20.668H19.1745C23.4305 20.668 27.1625 17.204 27.3239 13.1053C27.4465 10.0387 26.2852 7.08267 24.0532 4.78Z" fill="#231F20"/>
</svg>
