<svg width="28" height="28" viewBox="0 0 28 28" fill="none" xmlns="http://www.w3.org/2000/svg">
<path id="Mask" fill-rule="evenodd" clip-rule="evenodd" d="M20.5183 22.4245C20.2889 21.8472 19.9636 21.3432 19.6783 20.9125C19.5343 20.6965 19.3863 20.4765 19.2569 20.2499C18.7383 19.3485 18.9169 18.9832 19.7583 17.5739L19.8943 17.3432C20.5756 16.1952 20.6129 15.0939 20.6476 14.1232C20.6636 13.6459 20.6796 13.1965 20.7716 12.7739C20.9863 11.7979 23.0489 11.5379 24.3276 11.3845C24.5423 12.2232 24.6663 13.0965 24.6663 14.0005C24.6663 17.4259 23.0369 20.4712 20.5183 22.4245ZM4.61559 19.0659C5.46359 19.2819 6.38226 19.4312 7.31693 19.4312C8.75693 19.4312 10.2276 19.0792 11.4996 18.0832C13.7876 16.2939 13.7876 14.0059 13.7876 12.1659C13.7876 10.9765 13.7876 9.95121 14.2836 9.04054C14.5503 8.55254 15.1183 8.21387 15.7756 7.82054C16.1783 7.57921 16.5956 7.33121 16.9956 7.01654C17.8529 6.34587 18.4903 5.48321 18.8849 4.52854C20.7516 5.49521 22.2983 6.99254 23.3196 8.82587C21.4156 9.08987 18.7129 9.71387 18.1676 12.2032C18.0236 12.8619 18.0009 13.4819 17.9836 14.0299C17.9556 14.8072 17.9343 15.4219 17.6009 15.9845L17.4676 16.2085C16.6049 17.6525 15.6289 19.2899 16.9449 21.5792C17.1036 21.8565 17.2809 22.1232 17.4556 22.3885C17.9143 23.0765 18.1396 23.4565 18.1409 23.8299C16.8676 24.3685 15.4676 24.6672 13.9996 24.6672C9.95026 24.6672 6.42226 22.3979 4.61559 19.0659ZM13.9996 3.33387C14.8209 3.33387 15.6143 3.43521 16.3823 3.61121C16.1569 4.10721 15.8089 4.55921 15.3503 4.91787C15.0596 5.14721 14.7329 5.33787 14.4089 5.53121C13.5409 6.04854 12.5583 6.63521 11.9423 7.76321C11.1209 9.26987 11.1209 10.8085 11.1209 12.1659C11.1209 13.9725 11.0623 15.0405 9.85693 15.9832C8.03159 17.4139 5.23826 16.6152 3.51026 15.8885C3.40093 15.2739 3.33293 14.6445 3.33293 14.0005C3.33293 8.11921 8.11826 3.33387 13.9996 3.33387ZM13.9996 0.667206C6.64759 0.667206 0.66626 6.64854 0.66626 14.0005C0.66626 21.3512 6.64759 27.3339 13.9996 27.3339C21.3516 27.3339 27.3329 21.3512 27.3329 14.0005C27.3329 6.64854 21.3516 0.667206 13.9996 0.667206Z" fill="#231F20"/>
</svg>
