<svg width="24" height="24" viewBox="0 0 24 24" fill="none" xmlns="http://www.w3.org/2000/svg">
<path id="Mask" fill-rule="evenodd" clip-rule="evenodd" d="M19.6804 16.72L12.0004 21.1293L4.3204 16.72L6.57906 15.7587L11.3364 18.4893C11.5417 18.608 11.7711 18.6667 12.0004 18.6667C12.2297 18.6667 12.4577 18.608 12.6644 18.4893L17.4217 15.7573L19.6804 16.72ZM11.3364 13.156C11.5417 13.2747 11.7711 13.3333 12.0004 13.3333C12.2297 13.3333 12.4577 13.2747 12.6644 13.156L17.4217 10.424L19.6804 11.3867L12.0004 15.796L4.3204 11.3867L6.57906 10.424L11.3364 13.156ZM12.0004 2.78266L19.6804 6.05333L12.0004 10.4627L4.3204 6.05333L12.0004 2.78266ZM23.9977 11.1307C23.9671 10.6253 23.6537 10.1813 23.1884 9.98266L20.3191 8.76133L23.3311 7.032C23.7697 6.78133 24.0271 6.30266 23.9977 5.79733C23.9671 5.29333 23.6537 4.848 23.1884 4.64933L12.5217 0.106664C12.1884 -0.0360024 11.8111 -0.0360024 11.4777 0.106664L0.811065 4.64933C0.345731 4.848 0.032398 5.29333 0.00306466 5.79733C-0.027602 6.30266 0.231065 6.78133 0.669731 7.032L3.6804 8.76133L0.811065 9.98266C0.345731 10.1813 0.032398 10.6253 0.00306466 11.1307C-0.027602 11.636 0.231065 12.1147 0.669731 12.3653L3.6804 14.0947L0.811065 15.316C0.345731 15.5147 0.032398 15.9587 0.00306466 16.464C-0.027602 16.9693 0.231065 17.448 0.669731 17.6987L11.3364 23.8227C11.5417 23.9413 11.7711 24 12.0004 24C12.2297 24 12.4577 23.9413 12.6644 23.8227L23.3311 17.6987C23.7697 17.448 24.0271 16.9693 23.9977 16.464C23.9671 15.96 23.6537 15.5147 23.1897 15.316L20.3204 14.0933L23.3311 12.3653C23.7697 12.1147 24.0271 11.636 23.9977 11.1307Z" fill="#15242F"/>
</svg>
