<svg width="24" height="25" viewBox="0 0 24 25" fill="none" xmlns="http://www.w3.org/2000/svg">
<path fill-rule="evenodd" clip-rule="evenodd" d="M17.7603 16.4469L12.0003 19.7539L6.2403 16.4469L7.9343 15.7259L11.5023 17.7739C11.6563 17.8629 11.8283 17.9069 12.0003 17.9069C12.1723 17.9069 12.3433 17.8629 12.4983 17.7739L16.0663 15.7249L17.7603 16.4469ZM11.5023 13.7739C11.6563 13.8629 11.8283 13.9069 12.0003 13.9069C12.1723 13.9069 12.3433 13.8629 12.4983 13.7739L16.0663 11.7249L17.7603 12.4469L12.0003 15.7539L6.2403 12.4469L7.9343 11.7249L11.5023 13.7739ZM12.0003 5.99387L17.7603 8.44687L12.0003 11.7539L6.2403 8.44687L12.0003 5.99387ZM20.9983 12.2549C20.9753 11.8759 20.7403 11.5429 20.3913 11.3939L18.2393 10.4779L20.4983 9.18087C20.8273 8.99287 21.0203 8.63387 20.9983 8.25487C20.9753 7.87687 20.7403 7.54287 20.3913 7.39387L12.3913 3.98687C12.1413 3.87987 11.8583 3.87987 11.6083 3.98687L3.6083 7.39387C3.2593 7.54287 3.0243 7.87687 3.0023 8.25487C2.9793 8.63387 3.1733 8.99287 3.5023 9.18087L5.7603 10.4779L3.6083 11.3939C3.2593 11.5429 3.0243 11.8759 3.0023 12.2549C2.9793 12.6339 3.1733 12.9929 3.5023 13.1809L5.7603 14.4779L3.6083 15.3939C3.2593 15.5429 3.0243 15.8759 3.0023 16.2549C2.9793 16.6339 3.1733 16.9929 3.5023 17.1809L11.5023 21.7739C11.6563 21.8629 11.8283 21.9069 12.0003 21.9069C12.1723 21.9069 12.3433 21.8629 12.4983 21.7739L20.4983 17.1809C20.8273 16.9929 21.0203 16.6339 20.9983 16.2549C20.9753 15.8769 20.7403 15.5429 20.3923 15.3939L18.2403 14.4769L20.4983 13.1809C20.8273 12.9929 21.0203 12.6339 20.9983 12.2549Z" fill="#231F20"/>
<mask id="mask0_332_4322" style="mask-type:luminance" maskUnits="userSpaceOnUse" x="3" y="3" width="18" height="19">
<path fill-rule="evenodd" clip-rule="evenodd" d="M17.7603 16.4469L12.0003 19.7539L6.2403 16.4469L7.9343 15.7259L11.5023 17.7739C11.6563 17.8629 11.8283 17.9069 12.0003 17.9069C12.1723 17.9069 12.3433 17.8629 12.4983 17.7739L16.0663 15.7249L17.7603 16.4469ZM11.5023 13.7739C11.6563 13.8629 11.8283 13.9069 12.0003 13.9069C12.1723 13.9069 12.3433 13.8629 12.4983 13.7739L16.0663 11.7249L17.7603 12.4469L12.0003 15.7539L6.2403 12.4469L7.9343 11.7249L11.5023 13.7739ZM12.0003 5.99387L17.7603 8.44687L12.0003 11.7539L6.2403 8.44687L12.0003 5.99387ZM20.9983 12.2549C20.9753 11.8759 20.7403 11.5429 20.3913 11.3939L18.2393 10.4779L20.4983 9.18087C20.8273 8.99287 21.0203 8.63387 20.9983 8.25487C20.9753 7.87687 20.7403 7.54287 20.3913 7.39387L12.3913 3.98687C12.1413 3.87987 11.8583 3.87987 11.6083 3.98687L3.6083 7.39387C3.2593 7.54287 3.0243 7.87687 3.0023 8.25487C2.9793 8.63387 3.1733 8.99287 3.5023 9.18087L5.7603 10.4779L3.6083 11.3939C3.2593 11.5429 3.0243 11.8759 3.0023 12.2549C2.9793 12.6339 3.1733 12.9929 3.5023 13.1809L5.7603 14.4779L3.6083 15.3939C3.2593 15.5429 3.0243 15.8759 3.0023 16.2549C2.9793 16.6339 3.1733 16.9929 3.5023 17.1809L11.5023 21.7739C11.6563 21.8629 11.8283 21.9069 12.0003 21.9069C12.1723 21.9069 12.3433 21.8629 12.4983 21.7739L20.4983 17.1809C20.8273 16.9929 21.0203 16.6339 20.9983 16.2549C20.9753 15.8769 20.7403 15.5429 20.3923 15.3939L18.2403 14.4769L20.4983 13.1809C20.8273 12.9929 21.0203 12.6339 20.9983 12.2549Z" fill="white"/>
</mask>
<g mask="url(#mask0_332_4322)">
<rect y="0.90686" width="24" height="24" fill="#B4B4B4" fill-opacity="0.7"/>
</g>
</svg>
