<svg width="24" height="25" viewBox="0 0 24 25" fill="none" xmlns="http://www.w3.org/2000/svg">
<path fill-rule="evenodd" clip-rule="evenodd" d="M14.3291 20.9073C14.2621 20.9073 14.1931 20.9043 14.1241 20.8973C13.2441 20.8103 12.5541 20.1893 12.3641 19.3143L9.68112 6.92235L6.91812 13.3043C6.75912 13.6703 6.39812 13.9073 6.00012 13.9073H3.00012C2.44712 13.9073 2.00012 13.4593 2.00012 12.9073C2.00012 12.3543 2.44712 11.9073 3.00012 11.9073H5.34412L7.85012 6.11835C8.20512 5.30235 8.98712 4.82735 9.87612 4.91635C10.7561 5.00335 11.4461 5.62435 11.6361 6.49935L14.3191 18.8913L17.0821 12.5093C17.2411 12.1433 17.6011 11.9073 18.0001 11.9073H21.0001C21.5531 11.9073 22.0001 12.3543 22.0001 12.9073C22.0001 13.4593 21.5531 13.9073 21.0001 13.9073H18.6561L16.1501 19.6953C15.8231 20.4483 15.1221 20.9073 14.3291 20.9073Z" fill="#231F20"/>
<mask id="mask0_332_4594" style="mask-type:luminance" maskUnits="userSpaceOnUse" x="2" y="4" width="21" height="17">
<path fill-rule="evenodd" clip-rule="evenodd" d="M14.3291 20.9073C14.2621 20.9073 14.1931 20.9043 14.1241 20.8973C13.2441 20.8103 12.5541 20.1893 12.3641 19.3143L9.68112 6.92235L6.91812 13.3043C6.75912 13.6703 6.39812 13.9073 6.00012 13.9073H3.00012C2.44712 13.9073 2.00012 13.4593 2.00012 12.9073C2.00012 12.3543 2.44712 11.9073 3.00012 11.9073H5.34412L7.85012 6.11835C8.20512 5.30235 8.98712 4.82735 9.87612 4.91635C10.7561 5.00335 11.4461 5.62435 11.6361 6.49935L14.3191 18.8913L17.0821 12.5093C17.2411 12.1433 17.6011 11.9073 18.0001 11.9073H21.0001C21.5531 11.9073 22.0001 12.3543 22.0001 12.9073C22.0001 13.4593 21.5531 13.9073 21.0001 13.9073H18.6561L16.1501 19.6953C15.8231 20.4483 15.1221 20.9073 14.3291 20.9073Z" fill="white"/>
</mask>
<g mask="url(#mask0_332_4594)">
<rect y="0.90686" width="24" height="24" fill="#B4B4B4" fill-opacity="0.7"/>
</g>
</svg>
