<svg width="24" height="25" viewBox="0 0 24 25" fill="none" xmlns="http://www.w3.org/2000/svg">
<path fill-rule="evenodd" clip-rule="evenodd" d="M17.7656 8.29947L11.8986 14.1645C11.7476 13.9385 11.5746 13.7245 11.3776 13.5285C11.1806 13.3315 10.9666 13.1595 10.7406 13.0115L16.6096 7.14447C16.9156 6.83747 17.4576 6.83647 17.7666 7.14547C17.9196 7.29847 18.0026 7.49847 17.9996 7.73447C18.0026 7.94547 17.9186 8.14547 17.7656 8.29947ZM8.24562 18.8475L6.01762 18.8885L6.05662 16.6575C6.07762 15.3915 7.12662 14.3415 8.39562 14.3195C8.40962 14.3195 8.42162 14.3185 8.43562 14.3185C9.01962 14.3185 9.56062 14.5385 9.96362 14.9425C10.3766 15.3545 10.5976 15.9105 10.5876 16.5085C10.5666 17.7765 9.51562 18.8255 8.24562 18.8475ZM19.9996 7.73447C20.0096 6.97847 19.7176 6.26647 19.1806 5.73047C18.1186 4.66947 16.2556 4.66647 15.1956 5.73047L8.58262 12.3405C8.50762 12.3365 8.43562 12.3205 8.36062 12.3195C6.02662 12.3615 4.09562 14.2925 4.05662 16.6235L3.99962 19.8895C3.99462 20.1605 4.10162 20.4225 4.29262 20.6135C4.48062 20.8015 4.73562 20.9065 4.99962 20.9065H5.01862L8.28462 20.8475C10.6166 20.8065 12.5466 18.8755 12.5876 16.5425C12.5886 16.4675 12.5726 16.3965 12.5706 16.3205L19.1796 9.71347C19.7176 9.17547 20.0096 8.46347 19.9996 7.73447Z" fill="#231F20"/>
<mask id="mask0_332_4379" style="mask-type:luminance" maskUnits="userSpaceOnUse" x="3" y="4" width="17" height="17">
<path fill-rule="evenodd" clip-rule="evenodd" d="M17.7656 8.29947L11.8986 14.1645C11.7476 13.9385 11.5746 13.7245 11.3776 13.5285C11.1806 13.3315 10.9666 13.1595 10.7406 13.0115L16.6096 7.14447C16.9156 6.83747 17.4576 6.83647 17.7666 7.14547C17.9196 7.29847 18.0026 7.49847 17.9996 7.73447C18.0026 7.94547 17.9186 8.14547 17.7656 8.29947ZM8.24562 18.8475L6.01762 18.8885L6.05662 16.6575C6.07762 15.3915 7.12662 14.3415 8.39562 14.3195C8.40962 14.3195 8.42162 14.3185 8.43562 14.3185C9.01962 14.3185 9.56062 14.5385 9.96362 14.9425C10.3766 15.3545 10.5976 15.9105 10.5876 16.5085C10.5666 17.7765 9.51562 18.8255 8.24562 18.8475ZM19.9996 7.73447C20.0096 6.97847 19.7176 6.26647 19.1806 5.73047C18.1186 4.66947 16.2556 4.66647 15.1956 5.73047L8.58262 12.3405C8.50762 12.3365 8.43562 12.3205 8.36062 12.3195C6.02662 12.3615 4.09562 14.2925 4.05662 16.6235L3.99962 19.8895C3.99462 20.1605 4.10162 20.4225 4.29262 20.6135C4.48062 20.8015 4.73562 20.9065 4.99962 20.9065H5.01862L8.28462 20.8475C10.6166 20.8065 12.5466 18.8755 12.5876 16.5425C12.5886 16.4675 12.5726 16.3965 12.5706 16.3205L19.1796 9.71347C19.7176 9.17547 20.0096 8.46347 19.9996 7.73447Z" fill="white"/>
</mask>
<g mask="url(#mask0_332_4379)">
<rect y="0.90686" width="24" height="24" fill="#B4B4B4" fill-opacity="0.7"/>
</g>
</svg>
