<svg width="24" height="25" viewBox="0 0 24 25" fill="none" xmlns="http://www.w3.org/2000/svg">
<path fill-rule="evenodd" clip-rule="evenodd" d="M11.9995 16.9569C12.1585 16.9569 12.3175 16.9949 12.4625 17.0699L16.2315 19.0399L15.5145 14.8829C15.4575 14.5569 15.5665 14.2249 15.8045 13.9939L18.8405 11.0579L14.6375 10.4459C14.3125 10.3989 14.0315 10.1959 13.8855 9.90186L11.9995 6.10786L10.1135 9.90186C9.96755 10.1959 9.68655 10.3989 9.36155 10.4459L5.15855 11.0579L8.19455 13.9939C8.43255 14.2249 8.54155 14.5569 8.48455 14.8829L7.76755 19.0399L11.5365 17.0699C11.6815 16.9949 11.8405 16.9569 11.9995 16.9569ZM17.5615 21.8619C17.4025 21.8619 17.2435 21.8249 17.0985 21.7489L11.9995 19.0849L6.90055 21.7489C6.56255 21.9249 6.15455 21.8939 5.84955 21.6699C5.54155 21.4459 5.38855 21.0669 5.45255 20.6919L6.42455 15.0639L2.30455 11.0789C2.02955 10.8139 1.93155 10.4159 2.04855 10.0529C2.16455 9.68986 2.47855 9.42586 2.85555 9.37086L8.55655 8.54286L11.1035 3.41686C11.4415 2.73686 12.5575 2.73686 12.8955 3.41686L15.4425 8.54286L21.1435 9.37086C21.5205 9.42586 21.8345 9.68986 21.9505 10.0529C22.0675 10.4159 21.9695 10.8139 21.6945 11.0789L17.5745 15.0639L18.5465 20.6919C18.6105 21.0669 18.4575 21.4459 18.1495 21.6699C17.9765 21.7979 17.7695 21.8619 17.5615 21.8619Z" fill="#231F20"/>
<mask id="mask0_332_4437" style="mask-type:luminance" maskUnits="userSpaceOnUse" x="2" y="2" width="20" height="20">
<path fill-rule="evenodd" clip-rule="evenodd" d="M11.9995 16.9569C12.1585 16.9569 12.3175 16.9949 12.4625 17.0699L16.2315 19.0399L15.5145 14.8829C15.4575 14.5569 15.5665 14.2249 15.8045 13.9939L18.8405 11.0579L14.6375 10.4459C14.3125 10.3989 14.0315 10.1959 13.8855 9.90186L11.9995 6.10786L10.1135 9.90186C9.96755 10.1959 9.68655 10.3989 9.36155 10.4459L5.15855 11.0579L8.19455 13.9939C8.43255 14.2249 8.54155 14.5569 8.48455 14.8829L7.76755 19.0399L11.5365 17.0699C11.6815 16.9949 11.8405 16.9569 11.9995 16.9569ZM17.5615 21.8619C17.4025 21.8619 17.2435 21.8249 17.0985 21.7489L11.9995 19.0849L6.90055 21.7489C6.56255 21.9249 6.15455 21.8939 5.84955 21.6699C5.54155 21.4459 5.38855 21.0669 5.45255 20.6919L6.42455 15.0639L2.30455 11.0789C2.02955 10.8139 1.93155 10.4159 2.04855 10.0529C2.16455 9.68986 2.47855 9.42586 2.85555 9.37086L8.55655 8.54286L11.1035 3.41686C11.4415 2.73686 12.5575 2.73686 12.8955 3.41686L15.4425 8.54286L21.1435 9.37086C21.5205 9.42586 21.8345 9.68986 21.9505 10.0529C22.0675 10.4159 21.9695 10.8139 21.6945 11.0789L17.5745 15.0639L18.5465 20.6919C18.6105 21.0669 18.4575 21.4459 18.1495 21.6699C17.9765 21.7979 17.7695 21.8619 17.5615 21.8619Z" fill="white"/>
</mask>
<g mask="url(#mask0_332_4437)">
<rect y="0.90686" width="24" height="24" fill="#B4B4B4" fill-opacity="0.7"/>
</g>
</svg>
