<svg width="24" height="25" viewBox="0 0 24 25" fill="none" xmlns="http://www.w3.org/2000/svg">
<path fill-rule="evenodd" clip-rule="evenodd" d="M7.21968 6.90686C6.35568 6.90686 5.54568 7.24086 4.93968 7.84786C3.68168 9.10786 3.68168 11.1589 4.94068 12.4209L11.9997 19.4919L19.0597 12.4209C20.3187 11.1589 20.3187 9.10786 19.0597 7.84786C17.8477 6.63286 15.7117 6.63486 14.4997 7.84786L12.7077 9.64286C12.3317 10.0199 11.6677 10.0199 11.2917 9.64286L9.49968 7.84686C8.89368 7.24086 8.08468 6.90686 7.21968 6.90686ZM11.9997 21.9069C11.7347 21.9069 11.4797 21.8019 11.2927 21.6129L3.52468 13.8329C1.48868 11.7929 1.48868 8.47386 3.52468 6.43386C4.50868 5.44986 5.82068 4.90686 7.21968 4.90686C8.61868 4.90686 9.93168 5.44986 10.9147 6.43386L11.9997 7.52086L13.0847 6.43486C14.0687 5.44986 15.3807 4.90686 16.7807 4.90686C18.1787 4.90686 19.4917 5.44986 20.4747 6.43386C22.5117 8.47386 22.5117 11.7929 20.4757 13.8329L12.7077 21.6139C12.5197 21.8019 12.2657 21.9069 11.9997 21.9069Z" fill="#231F20"/>
<mask id="mask0_332_4595" style="mask-type:luminance" maskUnits="userSpaceOnUse" x="1" y="4" width="22" height="18">
<path fill-rule="evenodd" clip-rule="evenodd" d="M7.21968 6.90686C6.35568 6.90686 5.54568 7.24086 4.93968 7.84786C3.68168 9.10786 3.68168 11.1589 4.94068 12.4209L11.9997 19.4919L19.0597 12.4209C20.3187 11.1589 20.3187 9.10786 19.0597 7.84786C17.8477 6.63286 15.7117 6.63486 14.4997 7.84786L12.7077 9.64286C12.3317 10.0199 11.6677 10.0199 11.2917 9.64286L9.49968 7.84686C8.89368 7.24086 8.08468 6.90686 7.21968 6.90686ZM11.9997 21.9069C11.7347 21.9069 11.4797 21.8019 11.2927 21.6129L3.52468 13.8329C1.48868 11.7929 1.48868 8.47386 3.52468 6.43386C4.50868 5.44986 5.82068 4.90686 7.21968 4.90686C8.61868 4.90686 9.93168 5.44986 10.9147 6.43386L11.9997 7.52086L13.0847 6.43486C14.0687 5.44986 15.3807 4.90686 16.7807 4.90686C18.1787 4.90686 19.4917 5.44986 20.4747 6.43386C22.5117 8.47386 22.5117 11.7929 20.4757 13.8329L12.7077 21.6139C12.5197 21.8019 12.2657 21.9069 11.9997 21.9069Z" fill="white"/>
</mask>
<g mask="url(#mask0_332_4595)">
<rect y="0.90686" width="24" height="24" fill="#B4B4B4" fill-opacity="0.7"/>
</g>
</svg>
