<svg width="24" height="25" viewBox="0 0 24 25" fill="none" xmlns="http://www.w3.org/2000/svg">
<path fill-rule="evenodd" clip-rule="evenodd" d="M16.2402 22.9069C15.6882 22.9069 15.2402 22.4599 15.2402 21.9069V19.3079C15.2872 18.6449 15.0882 18.0679 14.6972 17.6489C14.4382 17.3729 14.3582 16.9749 14.4882 16.6209C14.6182 16.2659 14.9362 16.0149 15.3122 15.9719C17.7462 15.6899 20.0002 14.8539 20.0002 10.6809C20.0002 9.88085 19.7682 9.10985 19.3292 8.45385C18.9282 7.85585 18.7822 7.12685 18.9162 6.40085C19.0042 5.92785 18.9992 5.44685 18.9042 4.98185C18.5002 5.10185 17.8082 5.38685 16.8112 6.08085C16.5662 6.25085 16.2552 6.30185 15.9692 6.22185C14.1652 5.71485 12.2582 5.71485 10.4532 6.22185C10.1662 6.30185 9.85719 6.25085 9.61219 6.08085C8.62519 5.39385 7.93719 5.10785 7.51719 4.98985C7.42319 5.45085 7.41919 5.92785 7.50619 6.39785C7.63919 7.11985 7.48819 7.85685 7.08019 8.47485C6.64619 9.13385 6.41919 9.90385 6.42319 10.7039C6.42319 14.5979 8.30219 15.6369 11.1232 15.9999C11.4952 16.0479 11.8092 16.2999 11.9372 16.6529C12.0642 17.0059 11.9832 17.3999 11.7272 17.6739C11.3402 18.0889 11.1412 18.6599 11.1802 19.2409L11.1812 20.0289C11.1832 20.0689 11.1832 20.1089 11.1812 20.1489L11.1822 21.9069C11.1822 22.4599 10.7352 22.9069 10.1822 22.9069C9.63019 22.9069 9.18219 22.4599 9.18219 21.9069V21.3359C6.49719 21.6859 4.96719 20.2469 3.90619 19.2469C3.46619 18.8339 3.05219 18.4429 2.74919 18.3639C2.21419 18.2249 1.89319 17.6789 2.03219 17.1449C2.17119 16.6109 2.71719 16.2849 3.25119 16.4279C4.05019 16.6359 4.64619 17.1969 5.27719 17.7909C6.29919 18.7539 7.26919 19.6659 9.18219 19.3109V19.3079C9.14519 18.7789 9.22419 18.2369 9.40719 17.7239C7.35319 17.2119 4.42319 15.7189 4.42319 10.7089C4.41719 9.51685 4.75919 8.36285 5.41019 7.37385C5.53219 7.18885 5.57819 6.97185 5.53919 6.76085C5.33919 5.67785 5.45419 4.56585 5.87419 3.54985C5.98819 3.27385 6.21919 3.06285 6.50419 2.97485C6.83519 2.87285 8.05519 2.67785 10.3662 4.17785C12.2372 3.72885 14.1862 3.72885 16.0562 4.17785C18.3682 2.67785 19.5872 2.87185 19.9182 2.97485C20.2032 3.06285 20.4342 3.27385 20.5482 3.54985C20.9692 4.56785 21.0842 5.67885 20.8832 6.76485C20.8442 6.97385 20.8832 7.17885 20.9912 7.34185C21.6512 8.32885 22.0002 9.48285 22.0002 10.6809C22.0002 15.7449 19.0772 17.2199 17.0202 17.7139C17.2042 18.2429 17.2812 18.8119 17.2372 19.3849L17.2402 21.9069C17.2402 22.4599 16.7922 22.9069 16.2402 22.9069Z" fill="#231F20"/>
<mask id="mask0_332_4354" style="mask-type:luminance" maskUnits="userSpaceOnUse" x="1" y="2" width="22" height="21">
<path fill-rule="evenodd" clip-rule="evenodd" d="M16.2402 22.9069C15.6882 22.9069 15.2402 22.4599 15.2402 21.9069V19.3079C15.2872 18.6449 15.0882 18.0679 14.6972 17.6489C14.4382 17.3729 14.3582 16.9749 14.4882 16.6209C14.6182 16.2659 14.9362 16.0149 15.3122 15.9719C17.7462 15.6899 20.0002 14.8539 20.0002 10.6809C20.0002 9.88085 19.7682 9.10985 19.3292 8.45385C18.9282 7.85585 18.7822 7.12685 18.9162 6.40085C19.0042 5.92785 18.9992 5.44685 18.9042 4.98185C18.5002 5.10185 17.8082 5.38685 16.8112 6.08085C16.5662 6.25085 16.2552 6.30185 15.9692 6.22185C14.1652 5.71485 12.2582 5.71485 10.4532 6.22185C10.1662 6.30185 9.85719 6.25085 9.61219 6.08085C8.62519 5.39385 7.93719 5.10785 7.51719 4.98985C7.42319 5.45085 7.41919 5.92785 7.50619 6.39785C7.63919 7.11985 7.48819 7.85685 7.08019 8.47485C6.64619 9.13385 6.41919 9.90385 6.42319 10.7039C6.42319 14.5979 8.30219 15.6369 11.1232 15.9999C11.4952 16.0479 11.8092 16.2999 11.9372 16.6529C12.0642 17.0059 11.9832 17.3999 11.7272 17.6739C11.3402 18.0889 11.1412 18.6599 11.1802 19.2409L11.1812 20.0289C11.1832 20.0689 11.1832 20.1089 11.1812 20.1489L11.1822 21.9069C11.1822 22.4599 10.7352 22.9069 10.1822 22.9069C9.63019 22.9069 9.18219 22.4599 9.18219 21.9069V21.3359C6.49719 21.6859 4.96719 20.2469 3.90619 19.2469C3.46619 18.8339 3.05219 18.4429 2.74919 18.3639C2.21419 18.2249 1.89319 17.6789 2.03219 17.1449C2.17119 16.6109 2.71719 16.2849 3.25119 16.4279C4.05019 16.6359 4.64619 17.1969 5.27719 17.7909C6.29919 18.7539 7.26919 19.6659 9.18219 19.3109V19.3079C9.14519 18.7789 9.22419 18.2369 9.40719 17.7239C7.35319 17.2119 4.42319 15.7189 4.42319 10.7089C4.41719 9.51685 4.75919 8.36285 5.41019 7.37385C5.53219 7.18885 5.57819 6.97185 5.53919 6.76085C5.33919 5.67785 5.45419 4.56585 5.87419 3.54985C5.98819 3.27385 6.21919 3.06285 6.50419 2.97485C6.83519 2.87285 8.05519 2.67785 10.3662 4.17785C12.2372 3.72885 14.1862 3.72885 16.0562 4.17785C18.3682 2.67785 19.5872 2.87185 19.9182 2.97485C20.2032 3.06285 20.4342 3.27385 20.5482 3.54985C20.9692 4.56785 21.0842 5.67885 20.8832 6.76485C20.8442 6.97385 20.8832 7.17885 20.9912 7.34185C21.6512 8.32885 22.0002 9.48285 22.0002 10.6809C22.0002 15.7449 19.0772 17.2199 17.0202 17.7139C17.2042 18.2429 17.2812 18.8119 17.2372 19.3849L17.2402 21.9069C17.2402 22.4599 16.7922 22.9069 16.2402 22.9069Z" fill="white"/>
</mask>
<g mask="url(#mask0_332_4354)">
<rect y="0.90686" width="24" height="24" fill="#B4B4B4" fill-opacity="0.7"/>
</g>
</svg>
