<svg width="26" height="24" viewBox="0 0 26 24" fill="none" xmlns="http://www.w3.org/2000/svg">
<path id="Mask" fill-rule="evenodd" clip-rule="evenodd" d="M9.33333 2.66667C10.804 2.66667 12 3.86267 12 5.33333C12 6.804 10.804 8 9.33333 8C7.86267 8 6.66667 6.804 6.66667 5.33333C6.66667 3.86267 7.86267 2.66667 9.33333 2.66667ZM9.33333 10.6667C12.2747 10.6667 14.6667 8.27467 14.6667 5.33333C14.6667 2.392 12.2747 0 9.33333 0C6.392 0 4 2.392 4 5.33333C4 8.27467 6.392 10.6667 9.33333 10.6667ZM24.8749 1.6608C24.3189 1.17813 23.4776 1.23547 22.9936 1.79147L20.5056 4.65147L19.6603 3.70613C19.1709 3.1568 18.3283 3.11013 17.7776 3.60213C17.2296 4.0928 17.1816 4.9368 17.6736 5.4848L19.5256 7.55547C19.7789 7.83813 20.1403 7.99947 20.5189 7.99947H20.5283C20.9109 7.9968 21.2749 7.83013 21.5256 7.54213L25.0069 3.54213C25.4896 2.98613 25.4309 2.14347 24.8749 1.6608ZM0 22.6667C0 17.52 4.188 13.3333 9.33333 13.3333C14.4787 13.3333 18.6667 17.52 18.6667 22.6667C18.6667 23.4027 18.0707 24 17.3333 24C16.596 24 16 23.4027 16 22.6667C16 18.9907 13.0093 16 9.33333 16C5.65733 16 2.66667 18.9907 2.66667 22.6667C2.66667 23.4027 2.07067 24 1.33333 24C0.596 24 0 23.4027 0 22.6667Z" fill="#231F20"/>
</svg>
