<svg width="229" height="82" viewBox="0 0 229 82" fill="none" xmlns="http://www.w3.org/2000/svg">
<path d="M97.0039 21.9824L90.4414 26.1133C89.5625 24.7363 88.8008 23.7402 88.1562 23.0957C87.1309 22.041 85.8125 21.5137 84.2598 21.5137C82.6484 21.5137 81.3887 22.041 80.4805 23.0664C79.748 23.9453 79.3672 24.9121 79.3672 25.9668C79.3672 27.6074 80.8027 28.9551 83.6738 30.0391L87.3652 31.4453C91.5254 32.998 94.3379 34.9609 95.832 37.3047C96.8574 38.9746 97.3848 40.8203 97.3848 42.9004C97.3848 46.6797 95.9492 49.873 93.0781 52.4219C90.4414 54.7656 87.248 55.9375 83.498 55.9375C80.4219 55.9375 77.7266 55.1172 75.3535 53.4766C72.5996 51.5723 70.6953 48.3203 69.6406 43.6621L77.4629 41.582C78.0195 43.8672 78.5762 45.3906 79.0742 46.123C80.1582 47.6758 81.6523 48.4668 83.5859 48.4668C85.373 48.4668 86.8086 47.8516 87.9219 46.5918C88.8594 45.5371 89.3281 44.3359 89.3281 42.9883C89.3281 42.168 89.123 41.4648 88.6836 40.9082C88.0098 40 86.4277 39.0918 83.9375 38.1543L80.4219 36.8066C74.416 34.5215 71.3984 30.8887 71.3984 25.9082C71.3984 22.4805 72.6582 19.6387 75.207 17.3828C77.6973 15.1855 80.8027 14.0723 84.4648 14.0723C88.5078 14.0723 91.8477 15.5371 94.4844 18.4961C95.2754 19.375 96.125 20.5469 97.0039 21.9824ZM110.334 15.0098V55H102.658V15.0098H110.334ZM116.398 69.0039L123.195 53.6523L112.678 28.3984H120.91L127.355 44.2773L134.416 28.3984H142.619L124.484 69.0039H116.398ZM145.9 15.0098H167.521V22.3926H153.898V31.0352H166.32V38.4473H153.898V55H145.9V15.0098ZM184.162 27.4609C188.322 27.4609 191.809 29.043 194.65 32.1777C197.023 34.8438 198.225 38.0078 198.225 41.6699C198.225 45.9473 196.672 49.4922 193.596 52.2754C190.9 54.707 187.678 55.9375 183.928 55.9375C179.592 55.9375 176.018 54.3555 173.205 51.2207C170.832 48.5547 169.631 45.332 169.631 41.582C169.631 37.4219 171.184 33.9355 174.26 31.123C176.926 28.6914 180.236 27.4609 184.162 27.4609ZM183.869 34.4043C182.668 34.4043 181.525 34.7266 180.5 35.3418C178.42 36.6016 177.365 38.6816 177.365 41.6113C177.365 44.1602 178.098 46.0645 179.592 47.3828C180.822 48.4668 182.258 48.9941 183.928 48.9941C185.861 48.9941 187.473 48.3203 188.732 46.9434C189.904 45.6543 190.49 43.8965 190.49 41.6406C190.49 39.1797 189.758 37.3047 188.264 36.0156C187.062 34.9316 185.598 34.4043 183.869 34.4043ZM227.58 28.3984L217.648 41.2305L228.283 55H219.084L213.049 47.0898L207.014 55H197.785L208.449 41.2598L198.518 28.3984H207.746L213.078 35.4297L218.439 28.3984H227.58Z" fill="#15242F"/>
<rect y="12" width="27.2727" height="27.2727" fill="#FF7070"/>
<rect x="12.7273" y="30.1818" width="27.2727" height="27.2727" fill="#15242F"/>
<path d="M214.068 15.998H219.718V17.3945H217.643V23H216.144V17.3945H214.068V15.998ZM226.134 15.998H227.394V23H225.904V18.625L223.854 21.623L221.812 18.625V23H220.328V15.998H221.578L223.854 19.3184L226.134 15.998Z" fill="#F46B78"/>
</svg>
